<?xml version="1.0" encoding="UTF-8"?>
<svg width="151px" height="39px" viewBox="0 0 151 39" version="1.1" xmlns="http://www.w3.org/2000/svg" xmlns:xlink="http://www.w3.org/1999/xlink">
    <!-- Generator: Sketch 51.3 (57544) - http://www.bohemiancoding.com/sketch -->
    <title>logo/2</title>
    <desc>Created with Sketch.</desc>
    <defs></defs>
    <g id="logo/2" stroke="none" stroke-width="1" fill="none" fill-rule="evenodd">
        <g id="logo-2" transform="translate(0.000000, 1.000000)">
            <path d="M44.15,15.961 C44.15,14.8876613 44.6023288,13.9791704 45.507,13.2355 C46.4116712,12.4918296 47.5999926,12.12 49.072,12.12 C50.5440074,12.12 51.7131623,12.484163 52.5795,13.2125 C53.4458377,13.940837 53.9096664,14.9336604 53.971,16.191 L51.28,16.191 C51.2339998,15.5623302 51.015502,15.0716684 50.6245,14.719 C50.233498,14.3663316 49.6853369,14.19 48.98,14.19 C48.2746631,14.19 47.7226687,14.3471651 47.324,14.6615 C46.9253313,14.9758349 46.726,15.3898308 46.726,15.9035 C46.726,16.4171692 46.9789975,16.8196652 47.485,17.111 C47.9910025,17.4023348 48.608163,17.6169993 49.3365,17.755 C50.064837,17.8930007 50.793163,18.0616657 51.5215,18.261 C52.249837,18.4603343 52.8669975,18.8244974 53.373,19.3535 C53.8790025,19.8825026 54.132,20.5916622 54.132,21.481 C54.132,22.5850055 53.6681713,23.4819966 52.7405,24.172 C51.8128287,24.8620035 50.6206739,25.207 49.164,25.207 C47.707326,25.207 46.5266712,24.8543369 45.622,24.149 C44.7173288,23.4436631 44.2190005,22.4393399 44.127,21.136 L46.841,21.136 C46.8870002,21.7646698 47.1169979,22.2553316 47.531,22.608 C47.9450021,22.9606684 48.5084964,23.137 49.2215,23.137 C49.9345036,23.137 50.5018312,22.9798349 50.9235,22.6655 C51.3451688,22.3511651 51.556,21.9333359 51.556,21.412 C51.556,20.8906641 51.3030025,20.4843348 50.797,20.193 C50.2909975,19.9016652 49.673837,19.6831674 48.9455,19.5375 C48.217163,19.3918326 47.488837,19.2231676 46.7605,19.0315 C46.032163,18.8398324 45.4150025,18.4910025 44.909,17.985 C44.4029975,17.4789975 44.15,16.8043376 44.15,15.961 Z M59.629,7.98 L59.629,14.328 C60.4723376,12.8559926 61.8216574,12.12 63.677,12.12 C65.1030071,12.12 66.2798287,12.5953286 67.2075,13.546 C68.1351713,14.4966714 68.599,15.8229915 68.599,17.525 L68.599,25 L66,25 L66,17.916 C66,16.7813277 65.7163362,15.9111697 65.149,15.3055 C64.5816638,14.6998303 63.8073382,14.397 62.826,14.397 C61.8446618,14.397 61.0665029,14.6998303 60.4915,15.3055 C59.9164971,15.9111697 59.629,16.7813277 59.629,17.916 L59.629,25 L57.007,25 L57.007,7.98 L59.629,7.98 Z M81.318,18.652 C81.318,17.2873265 80.9461704,16.2255038 80.2025,15.4665 C79.4588296,14.7074962 78.5580053,14.328 77.5,14.328 C76.4419947,14.328 75.5526703,14.7074962 74.832,15.4665 C74.1113297,16.2255038 73.751,17.2911598 73.751,18.6635 C73.751,20.0358402 74.1036631,21.1014962 74.809,21.8605 C75.5143369,22.6195038 76.3921614,22.999 77.4425,22.999 C78.4928386,22.999 79.4013295,22.6156705 80.168,21.849 C80.9346705,21.0823295 81.318,20.0166735 81.318,18.652 Z M72.877,23.4015 C71.680994,22.1978273 71.083,20.6185098 71.083,18.6635 C71.083,16.7084902 71.7001605,15.1291727 72.9345,13.9255 C74.1688395,12.7218273 75.7059908,12.12 77.546,12.12 C79.3860092,12.12 80.9231605,12.7218273 82.1575,13.9255 C83.3918395,15.1291727 84.009,16.7046569 84.009,18.652 C84.009,20.5993431 83.3765063,22.1786606 82.1115,23.39 C80.8464937,24.6013394 79.2901759,25.207 77.4425,25.207 C75.5948241,25.207 74.073006,24.6051727 72.877,23.4015 Z M96.935,18.606 C96.935,17.3026601 96.5555038,16.2753371 95.7965,15.524 C95.0374962,14.7726629 94.1328386,14.397 93.0825,14.397 C92.0321614,14.397 91.1275038,14.7803295 90.3685,15.547 C89.6094962,16.3136705 89.23,17.3486601 89.23,18.652 C89.23,19.9553398 89.6094962,20.9941628 90.3685,21.7685 C91.1275038,22.5428372 92.0283281,22.93 93.071,22.93 C94.1136719,22.93 95.0183295,22.5351706 95.785,21.7455 C96.5516705,20.9558294 96.935,19.9093398 96.935,18.606 Z M93.646,12.12 C95.3480085,12.12 96.7663277,12.7218273 97.901,13.9255 C99.0356723,15.1291727 99.603,16.693157 99.603,18.6175 C99.603,20.541843 99.031839,22.1211605 97.8895,23.3555 C96.747161,24.5898395 95.3326751,25.207 93.646,25.207 C92.6493283,25.207 91.7753371,24.973169 91.024,24.5055 C90.2726629,24.037831 89.6746689,23.4130039 89.23,22.631 L89.23,31.026 L86.608,31.026 L86.608,12.327 L89.23,12.327 L89.23,14.581 C89.6593355,13.8449963 90.2534962,13.2508356 91.0125,12.7985 C91.7715038,12.3461644 92.6493283,12.12 93.646,12.12 Z M111.586,18.652 C111.586,17.2873265 111.21417,16.2255038 110.4705,15.4665 C109.72683,14.7074962 108.826005,14.328 107.768,14.328 C106.709995,14.328 105.82067,14.7074962 105.1,15.4665 C104.37933,16.2255038 104.019,17.2911598 104.019,18.6635 C104.019,20.0358402 104.371663,21.1014962 105.077,21.8605 C105.782337,22.6195038 106.660161,22.999 107.7105,22.999 C108.760839,22.999 109.669329,22.6156705 110.436,21.849 C111.20267,21.0823295 111.586,20.0166735 111.586,18.652 Z M103.145,23.4015 C101.948994,22.1978273 101.351,20.6185098 101.351,18.6635 C101.351,16.7084902 101.96816,15.1291727 103.2025,13.9255 C104.43684,12.7218273 105.973991,12.12 107.814,12.12 C109.654009,12.12 111.19116,12.7218273 112.4255,13.9255 C113.65984,15.1291727 114.277,16.7046569 114.277,18.652 C114.277,20.5993431 113.644506,22.1786606 112.3795,23.39 C111.114494,24.6013394 109.558176,25.207 107.7105,25.207 C105.862824,25.207 104.341006,24.6051727 103.145,23.4015 Z M119.383,10.165 C119.060998,10.4870016 118.666169,10.648 118.1985,10.648 C117.730831,10.648 117.336002,10.4870016 117.014,10.165 C116.691998,9.84299839 116.531,9.44433571 116.531,8.969 C116.531,8.49366429 116.691998,8.09500161 117.014,7.773 C117.336002,7.45099839 117.730831,7.29 118.1985,7.29 C118.666169,7.29 119.060998,7.45099839 119.383,7.773 C119.705002,8.09500161 119.866,8.49366429 119.866,8.969 C119.866,9.44433571 119.705002,9.84299839 119.383,10.165 Z M116.876,25 L116.876,12.327 L119.498,12.327 L119.498,25 L116.876,25 Z M125.57,12.327 L125.57,14.328 C126.413338,12.8559926 127.762657,12.12 129.618,12.12 C131.044007,12.12 132.220829,12.5953286 133.1485,13.546 C134.076171,14.4966714 134.54,15.8229915 134.54,17.525 L134.54,25 L131.941,25 L131.941,17.916 C131.941,16.7813277 131.657336,15.9111697 131.09,15.3055 C130.522664,14.6998303 129.748338,14.397 128.767,14.397 C127.785662,14.397 127.007503,14.6998303 126.4325,15.3055 C125.857497,15.9111697 125.57,16.7813277 125.57,17.916 L125.57,25 L122.948,25 L122.948,12.327 L125.57,12.327 Z M33,19 L38,19 C38,29.4934102 29.4934102,38 19,38 C8.50658975,38 -4.05009359e-13,29.4934102 -4.05009359e-13,19 C-4.05009359e-13,8.50658975 8.50658975,0 19,0 C28.4726073,0 36.3261492,6.93204305 37.7644965,16 L32.6778205,16 C31.30448,9.70963599 25.7022372,5 19,5 C11.2680135,5 5,11.2680135 5,19 C5,26.7319865 11.2680135,33 19,33 C25.3420413,33 30.6991443,28.7829779 32.4202426,23 L28.1679126,23 C26.6247994,26.5318096 23.1006381,29 19,29 C13.4771525,29 9,24.5228475 9,19 C9,13.4771525 13.4771525,9 19,9 C24.5228475,9 29,13.4771525 29,19 L33,19 Z M144.016,14.466 L140.934,14.466 L140.934,21.481 C140.934,21.9563357 141.045166,22.297499 141.2675,22.5045 C141.489834,22.711501 141.869331,22.815 142.406,22.815 L144.016,22.815 L144.016,25 L141.946,25 C139.507988,25 138.289,23.8270117 138.289,21.481 L138.289,14.466 L136.794,14.466 L136.794,12.327 L138.289,12.327 L138.289,9.176 L140.934,9.176 L140.934,12.327 L144.016,12.327 L144.016,14.466 Z M19,24 C21.7614237,24 24,21.7614237 24,19 C24,16.2385763 21.7614237,14 19,14 C16.2385763,14 14,16.2385763 14,19 C14,21.7614237 16.2385763,24 19,24 Z" id="Combined-Shape" fill="#191919"></path>
            <circle id="Path" fill="#FDDD1C" fill-rule="nonzero" cx="19" cy="19" r="5"></circle>
        </g>
    </g>
</svg>