<?xml version="1.0" encoding="UTF-8"?>
<svg width="35px" height="31px" viewBox="0 0 35 31" version="1.1" xmlns="http://www.w3.org/2000/svg" xmlns:xlink="http://www.w3.org/1999/xlink">
    <!-- Generator: Sketch 51.3 (57544) - http://www.bohemiancoding.com/sketch -->
    <title>icon-change-password</title>
    <desc>Created with Sketch.</desc>
    <defs></defs>
    <g id="my-account-new" stroke="none" stroke-width="1" fill="none" fill-rule="evenodd" stroke-linecap="round" stroke-linejoin="round">
        <g id="tabs" transform="translate(-280.000000, -336.000000)" stroke="#555555" stroke-width="2">
            <g id="Side-bar-Copy-2" transform="translate(260.000000, 169.000000)">
                <g id="Address-book">
                    <g id="icon-change-password" transform="translate(21.000000, 168.000000)">
                        <g id="lock" transform="translate(9.000000, 8.000000)">
                            <path d="M1,6 L10,6 C10.5522847,6 11,6.44771525 11,7 L11,12 C11,12.5522847 10.5522847,13 10,13 L1,13 C0.44771525,13 6.76353751e-17,12.5522847 0,12 L0,7 C-6.76353751e-17,6.44771525 0.44771525,6 1,6 Z" id="Rectangle-path"></path>
                            <path d="M2,6 L2,3.33333333 C2,1.49238417 3.56700338,2.96059473e-16 5.5,0 C7.43299662,-5.92118946e-16 9,1.49238417 9,3.33333333 L9,6" id="Shape"></path>
                        </g>
                        <g id="rotate-cw">
                            <polyline id="Shape" points="33 5 33 12 26 12"></polyline>
                            <path d="M28.8578108,19.3301834 C26.6540701,25.4197193 20.5904552,29.3522389 13.9862231,28.9750588 C7.38199097,28.5978787 1.82943997,24.001938 0.368067777,17.7030806 C-1.09330442,11.4042232 1.888843,4.92112072 7.68206576,1.80265998 C13.4752885,-1.31580076 20.6828248,-0.317750383 25.3592287,4.25047272 L33,11.2747824" id="Shape"></path>
                        </g>
                    </g>
                </g>
            </g>
        </g>
    </g>
</svg>