<?xml version="1.0" encoding="UTF-8"?>
<svg width="35px" height="35px" viewBox="0 0 35 35" version="1.1" xmlns="http://www.w3.org/2000/svg" xmlns:xlink="http://www.w3.org/1999/xlink">
    <!-- Generator: Sketch 51.3 (57544) - http://www.bohemiancoding.com/sketch -->
    <title>icon-sales-order</title>
    <desc>Created with Sketch.</desc>
    <defs></defs>
    <g id="my-account-new" stroke="none" stroke-width="1" fill="none" fill-rule="evenodd">
        <g id="tabs" transform="translate(-280.000000, -428.000000)">
            <g id="Side-bar-Copy-4" transform="translate(260.000000, 408.000000)">
                <g id="Address-book">
                    <g id="icon-sales-order" transform="translate(21.000000, 21.000000)">
                        <g id="square" transform="translate(0.000000, 4.000000)">
                            <rect id="Rectangle-path" stroke="#555555" stroke-width="2" stroke-linecap="round" stroke-linejoin="round" x="0" y="0" width="26" height="29" rx="2"></rect>
                            <path d="M5,8 L14,8 L14,10 L5,10 L5,8 Z M5,12 L16,12 L16,14 L5,14 L5,12 Z M5,16 L21,16 L21,18 L5,18 L5,16 Z M5,20 L21,20 L21,22 L5,22 L5,20 Z" id="Combined-Shape" fill="#555555"></path>
                        </g>
                        <circle id="Oval-2" stroke="#555555" stroke-width="2" fill="#FFFFFF" fill-rule="nonzero" cx="24.5" cy="8.5" r="8.5"></circle>
                        <g id="dollar-sign" transform="translate(22.000000, 3.000000)" stroke="#555555" stroke-linecap="round" stroke-linejoin="round" stroke-width="2">
                            <path d="M3,0 L3,11" id="Shape"></path>
                            <path d="M5.50000003,2 L1.75000001,2 C0.783501693,2 0,2.78350169 0,3.75 C0,4.71649831 0.783501693,5.5 1.75000001,5.5 L4.25000003,5.5 C5.21649833,5.50000002 6,6.2835017 6,7.25 C6,8.2164983 5.21649833,8.99999998 4.25000003,9 L0,9" id="Shape"></path>
                        </g>
                    </g>
                </g>
            </g>
        </g>
    </g>
</svg>