<?xml version="1.0" encoding="UTF-8"?>
<svg width="31px" height="35px" viewBox="0 0 31 35" version="1.1" xmlns="http://www.w3.org/2000/svg" xmlns:xlink="http://www.w3.org/1999/xlink">
    <!-- Generator: Sketch 51.3 (57544) - http://www.bohemiancoding.com/sketch -->
    <title>icon-invoice</title>
    <desc>Created with Sketch.</desc>
    <defs></defs>
    <g id="my-account-new" stroke="none" stroke-width="1" fill="none" fill-rule="evenodd">
        <g id="tabs" transform="translate(-507.000000, -428.000000)" fill-rule="nonzero">
            <g id="Side-bar-Copy-5" transform="translate(485.000000, 408.000000)">
                <g id="Address-book">
                    <g id="icon-invoice" transform="translate(22.000000, 20.000000)">
                        <path d="M30,9.97099425 L19.1403754,1 L2,1 C1.44771525,1 1,1.44771525 1,2 L1,33 C1,33.5522847 1.44771525,34 2,34 L29,34 C29.5522847,34 30,33.5522847 30,33 L30,9.97099425 Z" id="Rectangle-8-Copy" stroke="#555555" stroke-width="2" fill="#FFFFFF"></path>
                        <path d="M22.2806773,1 L30,7.37683184 L30,1 L22.2806773,1 Z" id="Rectangle-8-Copy-2" stroke="#555555" stroke-width="2" fill="#FFFFFF" transform="translate(25.250000, 4.750000) scale(-1, -1) translate(-25.250000, -4.750000) "></path>
                        <rect id="Rectangle-2" fill="#555555" x="5" y="10" width="11" height="2"></rect>
                        <rect id="Rectangle-2-Copy" fill="#555555" x="5" y="15" width="21" height="2"></rect>
                        <rect id="Rectangle-2-Copy-2" fill="#555555" x="5" y="20" width="21" height="2"></rect>
                        <rect id="Rectangle-2-Copy-3" fill="#555555" x="5" y="25" width="21" height="2"></rect>
                    </g>
                </g>
            </g>
        </g>
    </g>
</svg>