<?xml version="1.0" encoding="UTF-8"?>
<svg width="34px" height="36px" viewBox="0 0 34 36" version="1.1" xmlns="http://www.w3.org/2000/svg" xmlns:xlink="http://www.w3.org/1999/xlink">
    <!-- Generator: Sketch 51.3 (57544) - http://www.bohemiancoding.com/sketch -->
    <title>icon-address-book</title>
    <desc>Created with Sketch.</desc>
    <defs></defs>
    <g id="my-account-new" stroke="none" stroke-width="1" fill="none" fill-rule="evenodd">
        <g id="tabs" transform="translate(-280.000000, -239.000000)">
            <g id="Address-book" transform="translate(260.000000, 220.000000)">
                <g id="icon-address-book">
                    <g transform="translate(21.000000, 20.000000)">
                        <g id="address-book">
                            <g id="edit-(1)" stroke="#555555" stroke-linecap="round" stroke-linejoin="round" stroke-width="2">
                                <path d="M18.5,3 L3.22222222,3 C1.44263803,3 0,4.54213031 0,6.44444444 L0,30.5555556 C0,32.4578697 1.44263803,34 3.22222222,34 L25.7777778,34 C27.557362,34 29,32.4578697 29,30.5555556 L29,12.5" id="Shape"></path>
                                <path d="M27.5,1.5 C28.3284271,0.671572905 29.6715729,0.671572919 30.5,1.50000003 C31.3284271,2.32842714 31.3284271,3.67157287 30.5,4.5 L21,14 L17,15 L18,11 L27.5,1.5 Z" id="Shape"></path>
                            </g>
                            <rect id="Rectangle-7" fill="#555555" fill-rule="nonzero" x="5" y="11" width="9" height="3" rx="1.5"></rect>
                            <rect id="Rectangle-7-Copy" fill="#555555" fill-rule="nonzero" x="5" y="16" width="11" height="3" rx="1.5"></rect>
                            <rect id="Rectangle-7-Copy-2" fill="#555555" fill-rule="nonzero" x="5" y="21" width="19" height="3" rx="1.5"></rect>
                            <rect id="Rectangle-7-Copy-3" fill="#555555" fill-rule="nonzero" x="5" y="26" width="19" height="3" rx="1.5"></rect>
                        </g>
                    </g>
                </g>
            </g>
        </g>
    </g>
</svg>