<?xml version="1.0" encoding="UTF-8" standalone="no"?>
<!-- Created with Inkscape (http://www.inkscape.org/) -->

<svg
   xmlns:dc="http://purl.org/dc/elements/1.1/"
   xmlns:cc="http://creativecommons.org/ns#"
   xmlns:rdf="http://www.w3.org/1999/02/22-rdf-syntax-ns#"
   xmlns:svg="http://www.w3.org/2000/svg"
   xmlns="http://www.w3.org/2000/svg"
   xmlns:sodipodi="http://sodipodi.sourceforge.net/DTD/sodipodi-0.dtd"
   xmlns:inkscape="http://www.inkscape.org/namespaces/inkscape"
   width="50"
   height="16"
   viewBox="0 0 50.000002 16.000001"
   id="svg7221"
   version="1.1"
   inkscape:version="0.91 r13725"
   sodipodi:docname="afip.svg">
  <defs
     id="defs7223">
    <clipPath
       clipPathUnits="userSpaceOnUse"
       id="clipPath4153">
      <rect
         style="opacity:0.47000002;fill:#ffffff;fill-opacity:1;stroke:none;stroke-width:3.5999999;stroke-miterlimit:4;stroke-dasharray:none;stroke-dashoffset:0;stroke-opacity:1"
         id="rect4155"
         width="1664.7313"
         height="1159.6552"
         x="-1947.5741"
         y="470.51437" />
    </clipPath>
  </defs>
  <sodipodi:namedview
     id="base"
     pagecolor="#ffffff"
     bordercolor="#666666"
     borderopacity="1.0"
     inkscape:pageopacity="0.0"
     inkscape:pageshadow="2"
     inkscape:zoom="7.8577242"
     inkscape:cx="15.154988"
     inkscape:cy="5.2793216"
     inkscape:document-units="px"
     inkscape:current-layer="layer1"
     showgrid="false"
     units="px"
     inkscape:window-width="1280"
     inkscape:window-height="657"
     inkscape:window-x="-8"
     inkscape:window-y="-8"
     inkscape:window-maximized="1" />
  <metadata
     id="metadata7226">
    <rdf:RDF>
      <cc:Work
         rdf:about="">
        <dc:format>image/svg+xml</dc:format>
        <dc:type
           rdf:resource="http://purl.org/dc/dcmitype/StillImage" />
        <dc:title></dc:title>
      </cc:Work>
    </rdf:RDF>
  </metadata>
  <g
     inkscape:label="Capa 1"
     inkscape:groupmode="layer"
     id="layer1"
     transform="translate(0,-1036.3622)">
    <path
       style="fill:#666666;fill-opacity:1"
       d="m 0.0531468,1050.2552 c 0.029225,-0.059 1.3454095,-2.7595 2.9248388,-6.0004 l 2.8716877,-5.8926 1.6922871,0 1.6922824,0 0.9032522,1.8784 0.903251,1.8784 -2.0505312,4.1217 -2.0505302,4.1215 -3.4698421,0 -3.4698425,0 0.053147,-0.1071 z m 29.3835992,-1.9947 -0.265978,-0.2349 8.41e-4,-4.3171 8.42e-4,-4.3171 0.14851,-0.327 0.148512,-0.3272 2.634922,0 2.634918,0 0.169398,0.2013 0.169399,0.2012 0,4.4716 0,4.4717 -0.04366,0.04 c -0.02402,0.023 -0.13842,0.1171 -0.254231,0.2105 l -0.21056,0.17 -2.433352,0 -2.433352,0 -0.265977,-0.235 z m 8.185281,0.2176 c -0.102859,-0.018 -0.191353,-0.061 -0.274111,-0.1364 l -0.0628,-0.057 0,-4.5412 0,-4.5414 0.0325,-0.067 c 0.04075,-0.085 0.147386,-0.2075 0.206718,-0.2384 0.03902,-0.022 0.397531,-0.024 2.695579,-0.024 l 2.650549,0 0.101339,0.079 c 0.05574,0.042 0.119204,0.1061 0.141041,0.1385 l 0.03968,0.059 0.0041,4.4959 0.0041,4.496 -0.0654,0.085 c -0.08706,0.113 -0.129105,0.1488 -0.255919,0.214 l -0.1068,0.055 -2.513303,0 c -1.382317,0 -2.551054,-0.011 -2.597195,-0.016 z m -22.11664,-0.2227 c -0.09498,-0.037 -0.186723,-0.1118 -0.294136,-0.2419 l -0.07783,-0.094 0,-4.5281 0,-4.5284 0.04531,-0.07 c 0.06019,-0.094 0.24045,-0.2652 0.310522,-0.2947 0.04859,-0.02 0.411319,-0.024 2.738895,-0.024 l 2.682883,0 0.0674,0.052 c 0.07652,0.059 0.16454,0.2076 0.198323,0.3352 0.01875,0.071 0.02221,0.7732 0.02233,4.5201 l 1.6e-4,4.4366 -0.107145,0.1237 c -0.121874,0.1404 -0.229622,0.2296 -0.360965,0.2992 l -0.09081,0.047 -2.527174,0 c -2.467645,0 -2.529074,0 -2.607775,-0.032 z m -6.3365982,-1.6946 c 0.430211,-0.871 1.0497602,-2.1255 1.3767772,-2.7875 l 0.594582,-1.2037 1.132886,2.4164 1.132888,2.4165 -0.01691,0.085 c -0.02972,0.1492 -0.123128,0.3192 -0.238965,0.4351 -0.116528,0.1169 -0.227889,0.1779 -0.373642,0.2048 -0.0652,0.013 -0.756045,0.017 -2.242013,0.017 l -2.147793,0 z m 35.6510802,-0.7407 c -0.08947,-0.047 -0.179897,-0.1328 -0.245065,-0.2311 l -0.06511,-0.097 0.0043,-3.1615 0.0043,-3.1615 0.0354,-0.087 c 0.01947,-0.048 0.0575,-0.1154 0.08452,-0.1478 l 0.04912,-0.059 2.424412,0 2.424417,0 0.0801,0.046 c 0.168459,0.096 0.362267,0.3629 0.383573,0.526 0.0064,0.049 -0.179548,0.5233 -1.197716,3.0553 -1.094801,2.7228 -1.211523,3.0047 -1.273475,3.077 -0.08878,0.1039 -0.207496,0.1817 -0.350027,0.2301 l -0.114742,0.038 -1.098122,0 c -0.972044,0 -1.103593,0 -1.145761,-0.027 z m -22.25491,-1.5613 0,-1.4123 1.262407,0 c 1.216409,0 1.262407,0 1.262407,0.029 0,0.016 -0.278243,0.6498 -0.618317,1.4083 l -0.618318,1.3788 -0.64409,0 -0.644089,0 0,-1.4123 z m 0.230248,-2.6867 c -0.08897,-0.04 -0.162763,-0.1071 -0.199186,-0.1792 -0.03006,-0.059 -0.03107,-0.1028 -0.03107,-1.3402 l 0,-1.2792 0.05049,-0.095 c 0.02775,-0.052 0.07909,-0.1197 0.114011,-0.1499 l 0.06352,-0.055 2.010138,0 2.01013,0 0.05698,0.038 c 0.06942,0.047 0.148302,0.1675 0.173814,0.2643 l 0.01888,0.071 -0.654325,1.2687 c -0.459973,0.8919 -0.671649,1.2868 -0.712664,1.3294 -0.03209,0.033 -0.09764,0.08 -0.145678,0.1039 l -0.08734,0.043 -1.302112,0 c -1.23499,0 -1.305378,0 -1.365623,-0.026 z"
       id="path4173"
       inkscape:connector-curvature="0"
       sodipodi:nodetypes="cscccccccccccccccccccccccccccccccscccccsccscccsccscccccccccscscscscccccsscccscsscscscccsccccccsccccccccssscccccccsccccccsscscccccc" />
  </g>
</svg>
