<?xml version="1.0" encoding="UTF-8"?>
<svg width="60px" height="60px" viewBox="0 0 60 60" version="1.1" xmlns="http://www.w3.org/2000/svg" xmlns:xlink="http://www.w3.org/1999/xlink">
    <!-- Generator: Sketch 51.3 (57544) - http://www.bohemiancoding.com/sketch -->
    <title>support/uvdesk</title>
    <desc>Created with Sketch.</desc>
    <defs></defs>
    <g id="Page-1" stroke="none" stroke-width="1" fill="none" fill-rule="evenodd">
        <g id="multivendor-marketplace-doc-2" transform="translate(-291.000000, -8967.000000)">
            <g id="9" transform="translate(271.000000, 8765.000000)">
                <g id="Support" transform="translate(0.000000, 67.000000)">
                    <g id="UVdesk" transform="translate(20.000000, 135.000000)">
                        <g id="support/uvdesk">
                            <circle id="Oval" fill="#E9E9E9" cx="30" cy="30" r="30"></circle>
                            <g id="uvdesk" transform="translate(16.000000, 14.000000)" fill="#575757">
                                <path d="M28.98,16.663 L28.98,16.44 C28.9741496,16.2310148 29.1142521,16.046013 29.317,15.995 L30.666,15.995 C30.886,15.995 31.003,16.073 31.003,16.218 L31.003,16.663 L28.98,16.663 Z M27.291,20.663 L25.618,20.663 L25.618,12.007 L27.291,12.007 C27.5590971,11.9698078 27.8294423,12.0576284 28.0245013,12.2452752 C28.2195603,12.4329219 28.3177832,12.6996639 28.291,12.969 L28.291,19.705 C28.3177832,19.9743361 28.2195603,20.2410781 28.0245013,20.4287248 C27.8294423,20.6163716 27.5590971,20.7041922 27.291,20.667 L27.291,20.663 Z M6.4,21.333 C5.55516536,21.3504938 4.76691072,20.9097876 4.33936257,20.1809157 C3.91181441,19.4520438 3.91181441,18.5489562 4.33936257,17.8200843 C4.76691072,17.0912124 5.55516536,16.6505062 6.4,16.668 C7.24483464,16.6505062 8.03308928,17.0912124 8.46063743,17.8200843 C8.88818559,18.5489562 8.88818559,19.4520438 8.46063743,20.1809157 C8.03308928,20.9097876 7.24483464,21.3504938 6.4,21.333 Z M22.473,14.349 C19.2569328,16.5704071 15.0970234,16.8978568 11.573,15.207 C10.2502614,14.6098427 9.04965321,13.7727058 8.032,12.738 C6.58967546,14.501886 4.54173171,15.664907 2.288,16 L2.288,19.52 C2.29784571,22.3188499 3.35443341,25.0127562 5.25,27.072 C6.33244248,28.2485896 7.66520977,29.1671739 9.15,29.76 L8.5,32 C6.60081885,31.2946599 4.91078793,30.1206164 3.587,28.587 C1.30225519,26.0624102 0.0255828499,22.7858433 6.66133815e-16,19.381 L6.66133815e-16,14.9 L0,12.16 C0.101266362,5.40153198 5.61879957,-0.0188270327 12.378,6.66113486e-16 C19.0177713,0.00846272136 24.4909491,5.20929946 24.838,11.84 C24.8569585,12.1597192 24.8569585,12.4802808 24.838,12.8 L22.473,14.349 Z M15.5,27.326 C16.2403525,27.3271042 16.8397352,27.9279784 16.8389993,28.6683313 C16.8382635,29.4086843 16.2376876,30.0083659 15.4973343,30.0079983 C14.7569811,30.0076308 14.1570008,29.4073533 14.157,28.667 C14.1572651,28.3110794 14.2989083,27.9698418 14.5507697,27.7183555 C14.8026311,27.4668692 15.1440794,27.3257347 15.5,27.326 Z M18.532,16.668 C19.8168525,16.6834216 20.8473569,17.7348736 20.8369229,19.0197763 C20.826489,20.304679 19.7790451,21.3392571 18.4941116,21.333811 C17.2091781,21.3283649 16.1705418,20.284945 16.171,19 C16.1744383,18.3780643 16.4248036,17.7829685 16.8670165,17.3456316 C17.3092294,16.9082947 17.9070645,16.6645426 18.529,16.668 L18.532,16.668 Z M29.032,17.335 L31,17.335 C31.383,26.919 20.8,29.435 17.517,29.328 C17.657156,29.0278906 17.657156,28.6811094 17.517,28.381 C30.633,27.774 29.031,17.335 29.031,17.335 L29.032,17.335 Z" id="Logo-Icon"></path>
                            </g>
                        </g>
                    </g>
                </g>
            </g>
        </g>
    </g>
</svg>